<svg xmlns="http://www.w3.org/2000/svg" width="58" height="20.094" viewBox="0 0 58 20.094">
  <g id="logo" transform="translate(0 0)">
    <path id="Path_2471" data-name="Path 2471" d="M591.667,328.281v-4.232a.816.816,0,0,0-.919-.87,2.135,2.135,0,0,0-.75.133v4.969h-2v-6.2a7.353,7.353,0,0,1,2.72-.472c2.044,0,2.932.786,2.932,2.2v4.461Z" transform="translate(-535.652 -308.354)" fill="#fff100"/>
    <path id="Path_2472" data-name="Path 2472" d="M543.012,325.332l-4.058.532a1.446,1.446,0,0,0,1.583,1.064,4.378,4.378,0,0,0,1.837-.4l.559,1.474a6.506,6.506,0,0,1-2.551.472A3.143,3.143,0,0,1,537,325.067c0-2,1.162-3.4,3.119-3.4a2.769,2.769,0,0,1,2.914,3.059,5.166,5.166,0,0,1-.024.6m-2.932-2.262c-.7,0-1.245.484-1.257,1.561l2.3-.29c0-.822-.4-1.271-1.039-1.271" transform="translate(-491.773 -308.404)" fill="#fff100"/>
    <path id="Path_2473" data-name="Path 2473" d="M494.466,325.233q-.452,1.536-1.06,3.089h-2.374q-.607-1.509-1.072-3.047c-.31-1.025-.579-2.551-.81-3.615h2.073c.14.722.307,1.917.494,2.621s.391,1.382.613,2.041h.01q.309-1.011.571-2.094c.174-.722.317-1.9.429-2.566h1.941c-.246,1.04-.521,2.552-.821,3.573" transform="translate(-450.604 -308.395)" fill="#fff100"/>
    <path id="Path_2474" data-name="Path 2474" d="M446.982,328.467c-2.055,0-3.072-.762-3.072-2.152,0-1.729,1.766-2.128,3.736-2.234v-.254c0-.519-.363-.762-1.04-.762a5.418,5.418,0,0,0-1.846.4l-.486-1.335a7.451,7.451,0,0,1,2.58-.466c1.779,0,2.671.677,2.671,2.406v3.925a6.3,6.3,0,0,1-2.538.472m.666-3.143c-1.077.047-1.886.169-1.886.943,0,.532.447.822,1.16.822a2.661,2.661,0,0,0,.726-.1Z" transform="translate(-411.681 -308.395)" fill="#fff100"/>
    <path id="Path_2475" data-name="Path 2475" d="M416.619,321.66a1.883,1.883,0,0,0-1.268.582v-.578H413.79v6.657h2v-4.981a1.89,1.89,0,0,1,.677-.11,2.281,2.281,0,0,1,.737.121l.363-1.62a6.12,6.12,0,0,0-.944-.073" transform="translate(-385.767 -308.395)" fill="#fff100"/>
    <path id="Path_2476" data-name="Path 2476" d="M389.921,314.462a3.872,3.872,0,0,1-.69.054,2.55,2.55,0,0,1-.644-.078,1.267,1.267,0,0,1-.512-.261,1.213,1.213,0,0,1-.332-.494,2.166,2.166,0,0,1-.119-.773v-7.49h2.006v6.965a.754.754,0,0,0,.095.43.4.4,0,0,0,.346.13h.356v1.4a4.431,4.431,0,0,1-.5.113" transform="translate(-363.254 -294.423)" fill="#fff100"/>
    <path id="Path_2477" data-name="Path 2477" d="M341.722,328.432c-2.055,0-3.072-.762-3.072-2.152,0-1.729,1.765-2.128,3.736-2.234v-.254c0-.519-.363-.762-1.04-.762a5.427,5.427,0,0,0-1.85.4l-.483-1.338a7.458,7.458,0,0,1,2.575-.472c1.777,0,2.672.677,2.672,2.406v3.931a6.3,6.3,0,0,1-2.538.472m.665-3.143c-1.077.047-1.886.169-1.886.943,0,.532.448.822,1.16.822a2.661,2.661,0,0,0,.726-.1Z" transform="translate(-321.118 -308.361)" fill="#fff100"/>
    <path id="Path_2478" data-name="Path 2478" d="M273.742,325.242q-.427,1.536-.977,3.089H270.48l-.9-3.619h-.013l-.838,3.619h-2.318q-.487-1.44-.929-3.03c-.293-1.058-.54-2.591-.739-3.63H266.8c.119.739.251,1.93.4,2.608s.309,1.356.483,2.03h.011l.965-4.638h2.012l1.025,4.638h.011c.349-1.4.631-3.266.845-4.638h1.93c-.207,1.04-.452,2.552-.739,3.573" transform="translate(-257.528 -308.404)" fill="#fff100"/>
    <path id="Path_2479" data-name="Path 2479" d="M264.867,228.523h1.976a.007.007,0,0,0,.007-.007V226.66h-1.99v1.863a.007.007,0,0,0,.007.007" transform="translate(-257.631 -226.66)" fill="#fff100"/>
    <path id="Path_2480" data-name="Path 2480" d="M266.843,245.17h-1.976a.007.007,0,0,0-.007.007v6.488h1.99v-6.488a.007.007,0,0,0-.007-.007" transform="translate(-257.631 -242.586)" fill="#fff100"/>
    <path id="Path_2481" data-name="Path 2481" d="M290.139,249.446a2.653,2.653,0,0,1-.723.1c-.712,0-1.158-.289-1.158-.82,0-.771.807-.892,1.881-.94Zm1.868,1v-3.917c0-1.724-.892-2.4-2.664-2.4a7.458,7.458,0,0,0-2.572.471l.483,1.325a5.377,5.377,0,0,1,1.843-.4c.676,0,1.037.242,1.037.76v.254c-1.965.108-3.725.505-3.725,2.234,0,1.387,1.012,2.146,3.062,2.146a6.276,6.276,0,0,0,2.531-.471" transform="translate(-276.172 -241.691)" fill="#fff100"/>
    <path id="Path_2482" data-name="Path 2482" d="M345.058,250.788V246.32a2.087,2.087,0,0,0-2.351-2.17,4.059,4.059,0,0,0-2.217.6,3.225,3.225,0,0,0-2.094-.6,7.155,7.155,0,0,0-2.555.471v6.17h1.988v-4.955a1.8,1.8,0,0,1,.7-.14c.591,0,.928.313.928.807v4.278h1.993v-4.862a1.236,1.236,0,0,1,.734-.216.792.792,0,0,1,.892.838v4.242Z" transform="translate(-318.701 -241.708)" fill="#fff100"/>
    <path id="Path_2483" data-name="Path 2483" d="M413.739,247.494c0,1.192-.362,1.831-1.061,1.831s-1.06-.638-1.06-1.831.362-1.815,1.06-1.815,1.061.627,1.061,1.815m1.988.024c0-1.941-1.109-3.387-3.049-3.387s-3.048,1.447-3.048,3.387,1.109,3.4,3.048,3.4,3.049-1.458,3.049-3.4" transform="translate(-382.188 -241.691)" fill="#fff100"/>
    <path id="Path_2484" data-name="Path 2484" d="M466.694,250.764v-4.447c0-1.41-.892-2.194-2.932-2.194a7.342,7.342,0,0,0-2.712.471v6.17h1.988v-4.953a2.126,2.126,0,0,1,.748-.14.813.813,0,0,1,.916.867v4.218Z" transform="translate(-426.428 -241.684)" fill="#fff100"/>
    <path id="Path_2485" data-name="Path 2485" d="M513.159,234.259a1.8,1.8,0,0,1-.578.084c-.838,0-1.3-.638-1.3-1.856,0-1.085.434-1.815,1.279-1.815a1.857,1.857,0,0,1,.6.085Zm1.988,1.156V226.66h-1.988V229.3a3.036,3.036,0,0,0-.82-.121c-2.012,0-3.049,1.314-3.049,3.327a3.02,3.02,0,0,0,3.327,3.375,6.038,6.038,0,0,0,2.53-.471" transform="translate(-467.932 -226.66)" fill="#fff100"/>
    <path id="Path_2486" data-name="Path 2486" d="M216.959,234.259a1.815,1.815,0,0,1-.579.084c-.838,0-1.3-.638-1.3-1.856,0-1.085.434-1.815,1.278-1.815a1.867,1.867,0,0,1,.6.1Zm1.983,1.156V226.66h-1.983V229.3a3.038,3.038,0,0,0-.821-.121c-2.012,0-3.048,1.314-3.048,3.327a3.02,3.02,0,0,0,3.326,3.375,6.046,6.046,0,0,0,2.531-.471" transform="translate(-213.09 -226.66)" fill="#fff100"/>
  </g>
</svg>
